<svg xmlns="http://www.w3.org/2000/svg" viewBox="0 0 1152 720"><defs><style>.cls-1{fill:#e5fbeb;}.cls-2{font-size:23.1px;}.cls-10,.cls-2{fill:#1ed760;}.cls-2,.cls-4{font-family:HelveticaNeue, Helvetica Neue;}.cls-3{fill:#efefef;}.cls-4{font-size:19.49px;fill:#191414;}.cls-5{letter-spacing:-0.02em;}.cls-6{letter-spacing:0em;}.cls-7{letter-spacing:0.02em;}.cls-8{letter-spacing:-0.02em;}.cls-9{letter-spacing:0em;}.cls-11,.cls-13,.cls-14,.cls-15,.cls-18,.cls-21,.cls-22,.cls-23,.cls-24,.cls-25,.cls-26,.cls-27{fill:none;stroke:#68c168;stroke-miterlimit:10;}.cls-11{stroke-width:1.14px;}.cls-12{fill:#68c168;}.cls-13{stroke-width:1.18px;}.cls-14{stroke-width:1.28px;}.cls-15{stroke-width:1.28px;}.cls-16{font-size:11.91px;}.cls-16,.cls-17,.cls-19{fill:#656666;font-family:OpenSans, Open Sans;}.cls-17{font-size:11.91px;}.cls-18{stroke-width:1.16px;}.cls-19{font-size:14.08px;}.cls-20{opacity:0.2;}.cls-21{stroke-width:22.97px;}.cls-22{stroke-width:20.37px;}.cls-23{stroke-width:24.16px;}.cls-24{stroke-width:22.84px;}.cls-25{stroke-width:23.2px;}.cls-26{stroke-width:1.13px;}.cls-27{stroke-width:22.7px;}</style></defs><title>value-flow</title><g id="Layer_1" data-name="Layer 1"><rect class="cls-1" x="466.29" y="353.39" width="154.63" height="133.46" rx="15.43" ry="15.43"/><text class="cls-2" transform="translate(505.59 462.45)">Spotify</text><rect class="cls-3" x="125.37" y="205.54" width="128.17" height="76.58" rx="10.64" ry="10.64"/><text class="cls-4" transform="translate(155.13 238.24)">Reco<tspan class="cls-5" x="45.48" y="0">r</tspan><tspan class="cls-6" x="51.62" y="0">d</tspan><tspan x="-10.66" y="23.39">Company</tspan></text><rect class="cls-3" x="111.01" y="402.43" width="143.8" height="68.87" rx="10.69" ry="10.69"/><text class="cls-4" transform="translate(128.2 433.81)">Independent<tspan x="27.28" y="23.39">Artists</tspan></text><rect class="cls-3" x="466.36" y="633.07" width="141.06" height="65.71" rx="10.34" ry="10.34"/><text class="cls-4" transform="translate(485.18 675.13)">Gove<tspan class="cls-7" x="46.2" y="0">r</tspan><tspan x="53.04" y="0">nment</tspan></text><rect class="cls-3" x="823.13" y="169.94" width="119.35" height="71.09" rx="9.9" ry="9.9"/><text class="cls-4" transform="translate(863.26 200.21)">F<tspan class="cls-8" x="11.19" y="0">r</tspan><tspan class="cls-9" x="17.33" y="0">ee</tspan><tspan x="-6.13" y="23.39">Users</tspan></text><rect class="cls-3" x="889.45" y="401.15" width="154.46" height="77.76" rx="11.78" ry="11.78"/><text class="cls-4" transform="translate(927.9 434.1)">P<tspan class="cls-8" x="12.63" y="0">r</tspan><tspan class="cls-9" x="18.77" y="0">emium</tspan><tspan x="-16.04" y="23.39">Subscribers </tspan></text><rect class="cls-3" x="465.84" y="91.76" width="137.6" height="63.97" rx="10.08" ry="10.08"/><text class="cls-4" transform="translate(484.55 129.16)">Advertisers</text><rect class="cls-3" x="127.42" y="68.12" width="125.66" height="62.37" rx="9.51" ry="9.51"/><text class="cls-4" transform="translate(160.88 95.1)">Signed<tspan x="2.89" y="23.39">Artists</tspan></text><path class="cls-10" d="M541.74,374.86A28.16,28.16,0,1,0,569.89,403,28.16,28.16,0,0,0,541.74,374.86Zm12.91,40.61a1.75,1.75,0,0,1-2.41.58c-6.61-4-14.93-5-24.73-2.71a1.75,1.75,0,1,1-.78-3.42c10.73-2.45,19.93-1.4,27.35,3.14A1.76,1.76,0,0,1,554.65,415.48Zm3.45-7.67a2.2,2.2,0,0,1-3,.72c-7.57-4.65-19.1-6-28.06-3.28a2.19,2.19,0,1,1-1.28-4.2c10.23-3.1,22.94-1.6,31.63,3.74A2.2,2.2,0,0,1,558.09,407.81Zm.3-8c-9.08-5.39-24-5.89-32.71-3.26a2.63,2.63,0,1,1-1.53-5c9.95-3,26.48-2.44,36.93,3.77a2.63,2.63,0,0,1-2.69,4.53Z"/><path class="cls-11" d="M638.35,337.78c92.25-1.4,121.06-13.37,163.31-66"/><polygon class="cls-12" points="809.09 262.32 804.05 279.94 801.09 272.49 793.15 271.37 809.09 262.32"/><path class="cls-13" d="M805.34,237.14C732.87,222,660.4,264.28,621.92,327.26"/><polygon class="cls-12" points="615.72 338.16 618.27 319.25 622.43 326.48 630.78 326.44 615.72 338.16"/><path class="cls-14" d="M658.84,423.56,860,422.1"/><polygon class="cls-12" points="873.6 422 854.5 429.97 858.99 422.11 854.38 414.32 873.6 422"/><path class="cls-15" d="M869.81,441.68l-200.38,1.06"/><polygon class="cls-12" points="655.85 442.81 674.93 434.89 670.44 442.73 675.01 450.51 655.85 442.81"/><path class="cls-11" d="M555.56,180.74,557,327.16"/><polygon class="cls-12" points="557.12 339.19 550.02 322.3 556.99 326.26 563.88 322.17 557.12 339.19"/><path class="cls-11" d="M529.45,336.4l-1-145.83"/><polygon class="cls-12" points="528.33 178.54 535.38 195.45 528.42 191.47 521.52 195.55 528.33 178.54"/><path class="cls-11" d="M284.94,258.81c52.33,41,119,84.1,155.88,86.19"/><polygon class="cls-12" points="452.81 343.9 436.41 352.05 439.91 344.84 435.39 338.23 452.81 343.9"/><path class="cls-11" d="M468.79,333.54C425.88,275,364.84,226.18,299.94,241.6"/><polygon class="cls-12" points="288.39 245.02 302.76 233.65 300.82 241.42 306.61 246.96 288.39 245.02"/><path class="cls-11" d="M197.35,201.8l-.82-52.75"/><polygon class="cls-12" points="196.34 137.01 203.53 153.87 196.54 149.95 189.68 154.08 196.34 137.01"/><text class="cls-16" transform="translate(666.33 233.88)">Usage data</text><text class="cls-16" transform="translate(777.88 311.41)">Fast, stable streaming</text><text class="cls-16" transform="translate(720.53 465.22)">$$$, Usage Data</text><text class="cls-16" transform="translate(562.17 528.06)">Reduced<tspan x="0" y="14.29">workload</tspan><tspan x="0" y="28.59">of regulation</tspan></text><text class="cls-16" transform="translate(565.65 247.11)">$$$</text><text class="cls-16" transform="translate(498.63 247.35)">Ads</text><text class="cls-16"><tspan x="321.83" y="477.51">Independence</tspan><tspan x="312.31" y="491.81">Creative Freedom</tspan></text><path class="cls-15" d="M281.25,423.77,427,422.34"/><polygon class="cls-12" points="440.53 422.21 421.49 430.21 425.95 422.35 421.34 414.58 440.53 422.21"/><path class="cls-15" d="M437.72,441.88l-145.11,1"/><polygon class="cls-12" points="279.04 443.01 298.11 435.06 293.62 442.9 298.22 450.68 279.04 443.01"/><text class="cls-17" transform="translate(379.67 241.93) rotate(1.02)">Royalty Fees</text><text class="cls-17" transform="translate(134.09 178.56)">Represent</text><path class="cls-18" d="M643.54,123.75c28-.78,56-1,83.67,2.93,31.7,4.51,63.16,14.88,87.93,34.33"/><polygon class="cls-12" points="631.24 124.12 648.76 130.73 644.46 123.76 648.38 116.57 631.24 124.12"/><text class="cls-19" transform="translate(715.12 143.01)">$$$</text><g class="cls-20"><path class="cls-21" d="M846.94,438.69,671.1,439.86"/><polygon class="cls-12" points="879.38 438.47 833.54 420.1 844.51 438.7 833.79 457.45 879.38 438.47"/><polygon class="cls-12" points="638.66 440.07 684.25 421.09 673.53 439.84 684.5 458.44 638.66 440.07"/></g><g class="cls-20"><path class="cls-22" d="M424.07,442.6l-131.8.48"/><polygon class="cls-12" points="452.84 442.49 412.24 426.08 421.92 442.61 412.36 459.2 452.84 442.49"/><polygon class="cls-12" points="263.5 443.19 303.98 426.47 294.42 443.08 304.1 459.6 263.5 443.19"/></g><path class="cls-10" d="M339.41,415c2.78,0,5-1.8,5-4V396.88l13.09-3.14V404a6.28,6.28,0,0,0-1-.08c-2.78,0-5,1.8-5,4s2.26,4,5,4,5-1.8,5-4V386.14a2.25,2.25,0,0,0-2.77-2.19l-16.44,3.91a2.52,2.52,0,0,0-1.94,2.45V407a6.28,6.28,0,0,0-1-.08c-2.78,0-5,1.8-5,4S336.63,415,339.41,415Z"/><path class="cls-10" d="M319.46,336.75c2.78,0,5-1.8,5-4V318.63l13.09-3.14v10.27a6.28,6.28,0,0,0-1-.08c-2.78,0-5,1.8-5,4s2.26,4,5,4,5-1.8,5-4V307.89a2.25,2.25,0,0,0-2.77-2.19l-16.44,3.91a2.52,2.52,0,0,0-1.94,2.45v16.71a6.28,6.28,0,0,0-1-.08c-2.78,0-5,1.8-5,4S316.68,336.75,319.46,336.75Z"/><text class="cls-16" transform="translate(763.76 325.16)">Large music libary</text><text class="cls-16" transform="translate(697.09 399.27)">Fast, stable streaming</text><text class="cls-16" transform="translate(705.25 413.77)">Large music libary</text></g><g id="Layer_3" data-name="Layer 3"><g class="cls-20"><path class="cls-23" d="M812.11,241.16c-73.26-15.41-145.65,18.15-189.43,72.74"/><polygon class="cls-12" points="603.64 342.22 614.67 291.47 624.4 312 647.05 313.71 603.64 342.22"/></g><g class="cls-20"><path class="cls-24" d="M531.68,343.11l-1.18-143.3"/><polygon class="cls-12" points="530.23 167.56 549.18 212.85 530.52 202.22 512.04 213.16 530.23 167.56"/></g><g class="cls-20"><path class="cls-25" d="M468.79,333.54c-86.9-86.9-111.68-94.76-162.29-93.22"/><polygon class="cls-12" points="273.77 241.76 319.1 220.98 308.95 240.29 320.68 258.67 273.77 241.76"/></g><path class="cls-26" d="M538.71,505.71l-2,102.4"/><polygon class="cls-12" points="536.45 620.08 529.9 603.09 536.71 607.22 543.67 603.36 536.45 620.08"/><g class="cls-20"><path class="cls-27" d="M535.85,500.83,534.16,596"/><polygon class="cls-12" points="533.59 628 515.94 582.52 534.2 593.57 552.84 583.18 533.59 628"/></g></g></svg>