<svg id="Layer_1" data-name="Layer 1" xmlns="http://www.w3.org/2000/svg" viewBox="0 0 1280 960"><defs><style>.cls-1{fill:#ed9f9e;}.cls-2{fill:#e5b5b5;}.cls-3{fill:#ceb6b6;}.cls-4{fill:#ead8d8;}.cls-5{fill:#edbab7;}.cls-6{fill:#f7bfbf;}.cls-7{fill:#eaa49d;}.cls-8{fill:#f9e0d2;}.cls-9{fill:#bfb0b0;}.cls-10{font-size:118.36px;font-family:ContrailOne-Regular, Contrail One;}.cls-10,.cls-11{fill:#fff;}.cls-11{stroke:#fff;stroke-miterlimit:10;}</style></defs><title>rosie</title><rect class="cls-1" width="320" height="320"/><rect class="cls-2" x="960" y="320" width="320" height="320"/><rect class="cls-3" x="320" width="320" height="320"/><rect class="cls-4" x="640" y="320" width="320" height="320"/><rect class="cls-5" x="320" y="640" width="320" height="320"/><rect class="cls-6" x="960" width="320" height="320"/><rect class="cls-7" x="320" y="320" width="320" height="320"/><rect class="cls-8" x="640" width="320" height="320"/><rect class="cls-3" y="640" width="320" height="320"/><rect class="cls-8" y="320" width="320" height="320"/><rect class="cls-9" x="640" y="640" width="320" height="320"/><rect class="cls-1" x="960" y="640" width="320" height="320"/><text class="cls-10" transform="translate(673.07 525.1)">ROSIE</text><path class="cls-11" d="M1125.21,442.77l-3.25-2c-5.81-3.61-5.86-3.6-6.53-3.53-9,.93-14.35,9.37-15.57,11.51a17.66,17.66,0,0,0-9.45,6.45,24.45,24.45,0,0,1-11.27,8.21,1.43,1.43,0,0,0-1,.95,25.69,25.69,0,0,0-.93,8.07,16.84,16.84,0,0,0,3.27,9.64,16,16,0,0,0-4,7.67,18.47,18.47,0,0,0-.66,5.17,1.46,1.46,0,0,0,.89,1.08,16.73,16.73,0,0,1,4.27,3c2.24,1.95,4.56,4,7.33,4,2.24,6.14,7.12,13,7.86,14a1.42,1.42,0,0,0,.51.44,44.47,44.47,0,0,0,7.6,2.81c5.9,1.61,10.94,1.67,15,.21l.35-.14c3.07,2.26,6.18,2,8.94,1.72,2.14-.2,4-.37,5.7.56a1.44,1.44,0,0,0,1.27,0c.88-.4,6.49-6.34,8.16-13.18a10.26,10.26,0,0,0,1.48-.27c4.06-1.05,7.65-4.46,10.67-10.13a67.92,67.92,0,0,1,4.11-6.69,27,27,0,0,0,3.66-6.69,11.93,11.93,0,0,0,.53-2.24c.49-3.62-.58-7.67-3.13-11.65a20.78,20.78,0,0,1-1.45-3.06c-1.66-4-3.93-9.47-11.52-10.21-.27-.7-.57-1.39-.91-2.07a1.43,1.43,0,0,0,.29-.28,3.38,3.38,0,0,0,.7-1.62c.34-2.49-2.2-5.32-4.68-8.08-1.86-2.06-4-4.4-4.39-6.13a2.15,2.15,0,0,0-1.76-1.54c-2.6-.63-8.9.93-12.06,4Zm-9.83-2.66c.79.41,3.05,1.82,5.08,3.08,3,1.87,5.67,3.51,7.73,4.69l-1.52.28a40.83,40.83,0,0,1-7.57.92,16.08,16.08,0,0,0-6.21,1.07,17.89,17.89,0,0,0-9.24-2C1105.66,445.32,1109.69,440.85,1115.37,440.11ZM1146.53,463a37.41,37.41,0,0,0,4.48,10.19c3.15,4.76,1.14,10-2.22,13.08a15.32,15.32,0,0,0-2.13-3,25.84,25.84,0,0,0-2.17-10.39,27.93,27.93,0,0,0-13.41-14.23c-7.52-3.55-16.49-2.09-22.55,1.33a9.93,9.93,0,0,1,2.53-5.34c1.82-1.87,4.51-2.81,8-2.78a42.91,42.91,0,0,0,8.11-1c4.07-.75,7.92-1.46,10.76.14,5.88,3.31,7.08,7.13,8.59,12Zm-14.19,43.85a23.65,23.65,0,0,0-6.4,3.22c-2.34,1.53-4.19,2.74-7.71,2.74-8.16,0-15.2-6.11-17.69-11.84a8.65,8.65,0,0,1-.85-4.15c3,3.55,8.22,7.74,13.8,8.39a10.52,10.52,0,0,0,8.76-2.86,16.74,16.74,0,0,0,1.75-1.9c2.38,1.15,6.11,1.28,9.68.28a17.43,17.43,0,0,0,11.41-9.8,18,18,0,0,0,1.12-3.47,9.24,9.24,0,0,1,.94,7c-1.38,5.25-7.05,10-14.8,12.34Zm-44.24-13.63a11.13,11.13,0,0,1,1.17-13,39.77,39.77,0,0,0,5.87-11.22c1.69-4.46,2.71-6.82,5.65-7.38a3.18,3.18,0,0,1,3.39,1.67c-2.5,2.63-3.56,5.66-2.93,8.56a15.76,15.76,0,0,0-3.79,4.62,18,18,0,0,0,.19,17.5,8,8,0,0,0-.36,6.4c-3.44-.59-7.37-3.92-9.2-7.17Zm54.38-3.45a14.62,14.62,0,0,1-9.57,8.21,12.36,12.36,0,0,1-7.36,0,13.94,13.94,0,0,0,.77-1.83,13.24,13.24,0,0,0,8.81-8.68,14,14,0,0,0,.59-2.54c.61-4.49-1-9.11-4.64-13-4.2-4.5-10.21-9-19.54-3.67a16.59,16.59,0,0,0-7.62,1.79c0-2.63,2.11-4.78,3.48-5.91,5.14-4.24,14.95-6.51,22.47-3a25,25,0,0,1,12,12.78c2.37,5.54,2.59,11.28.6,15.76Zm-41.92,3.49a15.25,15.25,0,0,1-.59-15.41,12.56,12.56,0,0,1,7.21-6,16.28,16.28,0,0,0-3.72,7.18,12.3,12.3,0,0,0,1.46,9.58c3.14,4.66,7.48,6.8,11.92,5.88a10.17,10.17,0,0,0,7.08-5.48,11.49,11.49,0,0,1-3.63,11.29,7.79,7.79,0,0,1-6.48,2.11c-3.77-.44-9.7-3.78-13.26-9.11Zm21.52-7.26a4.1,4.1,0,0,1-6.89-3.13,4.14,4.14,0,0,1,0-.42,4.1,4.1,0,1,1,6.86,3.56Zm4.09-2a7.05,7.05,0,0,0,.06-.72A6.95,6.95,0,1,0,1119,490c.21,0,.43,0,.64,0a7.67,7.67,0,0,1-3.43,1.71c-3.3.68-6.49-1-9-4.68a9.46,9.46,0,0,1-1-7.35,13.61,13.61,0,0,1,6.4-8.66c7.29-4.27,11.81-1.91,16.36,3,4.91,5.25,4.25,10.2,3.42,12.68A10.76,10.76,0,0,1,1127,493c0-.44.06-.89.06-1.34a16.34,16.34,0,0,0-1.27-6.15,6.91,6.91,0,0,0,.37-1.48Zm-46.08-11.64a23.61,23.61,0,0,1,.62-6.48,27.58,27.58,0,0,0,12-8.95,14.72,14.72,0,0,1,10.2-5.88,15.7,15.7,0,0,1,7,.84,10.91,10.91,0,0,0-.87.8,13.13,13.13,0,0,0-3.42,7.86,5.78,5.78,0,0,0-5.36-1.69c-4.64.88-6.09,4.72-7.78,9.17a36.86,36.86,0,0,1-5.44,10.47,16.72,16.72,0,0,0-2.3,3.82c-2.86-2.28-4.42-5.62-4.65-10Zm2.76,24.5a23.18,23.18,0,0,0-4.18-3.12c.18-2,1-7,3.8-9.61a15.09,15.09,0,0,0,1.4,1.09,14.2,14.2,0,0,0,1.75,9.43,17.51,17.51,0,0,0,1.61,2.37,10.11,10.11,0,0,0,.22,3c-1.46-.42-3-1.74-4.6-3.13Zm15.43,18.17c-.63-.89-2.59-3.74-4.44-7.05a34.71,34.71,0,0,1-3.44-7.84,13.64,13.64,0,0,0,8.12,3.22c3.3,6.3,10.81,12.32,19.71,12.33a14.17,14.17,0,0,0,4.18-.58,10.65,10.65,0,0,1-4.13,2.67c-7.58,2.77-18.08-1.84-20-2.74Zm30,4.17c-2.09.19-3.95.36-5.75-.45a14.4,14.4,0,0,0,4.88-6.2l.1-.06a21,21,0,0,1,5.67-2.88,35.33,35.33,0,0,0,4.19-1.57l.09.07a9.15,9.15,0,0,0,3.29,1.25,27.33,27.33,0,0,1-6.1,10.29,13.51,13.51,0,0,0-6.37-.44Zm28.63-49.38a22.62,22.62,0,0,0,1.68,3.51c2.61,4.07,3.43,8.13,2.3,11.43a24.5,24.5,0,0,1-3.33,6,70.34,70.34,0,0,0-4.27,6.95c-2.59,4.87-5.66,7.88-8.87,8.71a7.24,7.24,0,0,1-3.9,0,26.23,26.23,0,0,0,3.65-2.61,17.27,17.27,0,0,0,5.71-8.52,12.52,12.52,0,0,0,.3-1.49,11.88,11.88,0,0,0-.29-4.67l.06,0a15.32,15.32,0,0,0,5-7.44,12.61,12.61,0,0,0,.38-1.77,11.74,11.74,0,0,0-1.95-8.21,34.57,34.57,0,0,1-4.14-9.47l-.2-.63c4.84,1,6.37,4.7,7.85,8.27Zm-15.61-21.44a25.23,25.23,0,0,1,3.75,4.86,19.58,19.58,0,0,0-5.71-4.64,11.59,11.59,0,0,0-6.2-1.33,1.42,1.42,0,0,0-.46-.28,42.33,42.33,0,0,1-4.91-2.67,15.52,15.52,0,0,1,8.64-2.78c.76,2.26,2.86,4.6,4.89,6.86Z"/></svg>