<?xml version="1.0" encoding="utf-8"?>
<!-- Generator: Adobe Illustrator 21.0.0, SVG Export Plug-In . SVG Version: 6.00 Build 0)  -->
<svg version="1.1" id="Layer_1" xmlns="http://www.w3.org/2000/svg" xmlns:xlink="http://www.w3.org/1999/xlink" x="0px" y="0px"
	 viewBox="0 0 1280 960" style="enable-background:new 0 0 1280 960;" xml:space="preserve">
<style type="text/css">
	.st0{fill:#ED9F9E;}
	.st1{fill:#E5B5B5;}
	.st2{fill:#CEB6B6;}
	.st3{fill:#EAD8D8;}
	.st4{fill:#EDBAB7;}
	.st5{fill:#F7BFBF;}
	.st6{fill:#EAA49D;}
	.st7{fill:#F9E0D2;}
	.st8{fill:#BFB0B0;}
	.st9{fill:#FFFFFF;stroke:#FFFFFF;stroke-miterlimit:10;}
</style>
<title>rosie</title>
<rect class="st0" width="320" height="320"/>
<rect x="960" y="320" class="st1" width="320" height="320"/>
<rect x="320" class="st2" width="320" height="320"/>
<rect x="640" y="320" class="st3" width="320" height="320"/>
<rect x="320" y="640" class="st4" width="320" height="320"/>
<rect x="960" class="st5" width="320" height="320"/>
<rect x="320" y="320" class="st6" width="320" height="320"/>
<rect x="640" class="st7" width="320" height="320"/>
<rect y="640" class="st2" width="320" height="320"/>
<rect y="320" class="st7" width="320" height="320"/>
<rect x="640" y="640" class="st8" width="320" height="320"/>
<rect x="960" y="640" class="st0" width="320" height="320"/>
<path class="st9" d="M797.8,442.8l-3.2-2c-5.8-3.6-5.9-3.6-6.5-3.5c-9,0.9-14.3,9.4-15.6,11.5c-3.8,1-7.1,3.3-9.4,6.5
	c-2.9,3.8-6.8,6.6-11.3,8.2c-0.5,0.1-0.9,0.5-1,1c-0.7,2.6-1.1,5.3-0.9,8.1c0.1,3.5,1.2,6.8,3.3,9.6c-2,2.1-3.4,4.8-4,7.7
	c-0.5,1.7-0.7,3.4-0.7,5.2c0.1,0.5,0.4,0.9,0.9,1.1c1.6,0.8,3,1.8,4.3,3c2.2,2,4.6,4,7.3,4c2.2,6.1,7.1,13,7.9,14
	c0.1,0.2,0.3,0.3,0.5,0.4c2.4,1.2,5,2.1,7.6,2.8c5.9,1.6,10.9,1.7,15,0.2l0.3-0.1c3.1,2.3,6.2,2,8.9,1.7c2.1-0.2,4-0.4,5.7,0.6
	c0.4,0.2,0.9,0.2,1.3,0c0.9-0.4,6.5-6.3,8.2-13.2c0.5-0.1,1-0.1,1.5-0.3c4.1-1,7.7-4.5,10.7-10.1c1.2-2.3,2.6-4.5,4.1-6.7
	c1.5-2,2.8-4.3,3.7-6.7c0.2-0.7,0.4-1.5,0.5-2.2c0.5-3.6-0.6-7.7-3.1-11.6c-0.6-1-1.1-2-1.4-3.1c-1.7-4-3.9-9.5-11.5-10.2
	c-0.3-0.7-0.6-1.4-0.9-2.1c0.1-0.1,0.2-0.2,0.3-0.3c0.4-0.5,0.6-1,0.7-1.6c0.3-2.5-2.2-5.3-4.7-8.1c-1.9-2.1-4-4.4-4.4-6.1
	c-0.2-0.8-0.9-1.4-1.8-1.5C807.3,438.1,801,439.7,797.8,442.8L797.8,442.8z M787.9,440.1c0.8,0.4,3.1,1.8,5.1,3.1
	c3,1.9,5.7,3.5,7.7,4.7l-1.5,0.3c-2.5,0.5-5,0.9-7.6,0.9c-2.1-0.1-4.2,0.3-6.2,1.1c-2.8-1.5-6-2.2-9.2-2
	C778.2,445.3,782.3,440.9,787.9,440.1L787.9,440.1z M819.1,463c1,3.6,2.5,7,4.5,10.2c3.2,4.8,1.1,10-2.2,13.1
	c-0.6-1.1-1.3-2.1-2.1-3c0-3.6-0.7-7.1-2.2-10.4c-2.6-6.2-7.4-11.3-13.4-14.2c-7.5-3.5-16.5-2.1-22.6,1.3c0.3-2,1.2-3.9,2.5-5.3
	c1.8-1.9,4.5-2.8,8-2.8c2.7-0.1,5.4-0.4,8.1-1c4.1-0.8,7.9-1.5,10.8,0.1C816.4,454.3,817.6,458.1,819.1,463L819.1,463z M804.9,506.9
	c-2.3,0.7-4.4,1.8-6.4,3.2c-2.3,1.5-4.2,2.7-7.7,2.7c-8.2,0-15.2-6.1-17.7-11.8c-0.6-1.3-0.9-2.7-0.8-4.1c3,3.5,8.2,7.7,13.8,8.4
	c3.2,0.4,6.4-0.6,8.8-2.9c0.6-0.6,1.2-1.2,1.8-1.9c2.4,1.1,6.1,1.3,9.7,0.3c5.1-1.4,9.3-5,11.4-9.8c0.5-1.1,0.9-2.3,1.1-3.5
	c1.2,2.1,1.6,4.6,0.9,7C818.3,499.7,812.7,504.5,804.9,506.9L804.9,506.9z M760.7,493.2c-2.5-4.1-2-9.4,1.2-13
	c2.5-3.4,4.5-7.2,5.9-11.2c1.7-4.5,2.7-6.8,5.7-7.4c1.4-0.2,2.7,0.4,3.4,1.7c-2.5,2.6-3.6,5.7-2.9,8.6c-1.5,1.3-2.8,2.9-3.8,4.6
	c-3,5.5-2.9,12.1,0.2,17.5c-1,2-1.1,4.3-0.4,6.4C766.4,499.8,762.5,496.5,760.7,493.2L760.7,493.2z M815,489.8
	c-1.8,4-5.3,7.1-9.6,8.2c-2.4,0.7-5,0.7-7.4,0c0.3-0.6,0.6-1.2,0.8-1.8c4.2-1.3,7.5-4.5,8.8-8.7c0.3-0.8,0.5-1.7,0.6-2.5
	c0.6-4.5-1-9.1-4.6-13c-4.2-4.5-10.2-9-19.5-3.7c-2.6,0-5.3,0.6-7.6,1.8c0-2.6,2.1-4.8,3.5-5.9c5.1-4.2,14.9-6.5,22.5-3
	c5.4,2.7,9.7,7.2,12,12.8C816.8,479.5,817,485.2,815,489.8L815,489.8z M773.1,493.3c-3-4.7-3.2-10.5-0.6-15.4c1.5-2.9,4.1-5,7.2-6
	c-1.8,2-3.1,4.5-3.7,7.2c-0.8,3.3-0.3,6.7,1.5,9.6c3.1,4.7,7.5,6.8,11.9,5.9c3.1-0.6,5.7-2.7,7.1-5.5c1,4.1-0.4,8.5-3.6,11.3
	c-1.7,1.7-4.1,2.4-6.5,2.1C782.6,502,776.7,498.6,773.1,493.3L773.1,493.3z M794.6,486c-1.7,1.5-4.3,1.4-5.8-0.2
	c-0.7-0.8-1.1-1.8-1.1-2.9c0-0.1,0-0.3,0-0.4c0.3-2.2,2.4-3.8,4.6-3.5c2.2,0.3,3.8,2.4,3.5,4.6C795.7,484.5,795.3,485.4,794.6,486
	L794.6,486z M798.7,484c0-0.2,0.1-0.5,0.1-0.7c0.1-3.8-2.9-7-6.7-7.2c-3.8-0.1-7,2.9-7.2,6.7c-0.1,3.8,2.9,7,6.7,7.2
	c0.2,0,0.4,0,0.6,0c-1,0.9-2.2,1.4-3.4,1.7c-3.3,0.7-6.5-1-9-4.7c-1.3-2.2-1.7-4.9-1-7.4c0.9-3.6,3.2-6.8,6.4-8.7
	c7.3-4.3,11.8-1.9,16.4,3c4.9,5.2,4.2,10.2,3.4,12.7c-0.9,2.7-2.8,5-5.4,6.3c0-0.4,0.1-0.9,0.1-1.3c0-2.1-0.5-4.2-1.3-6.1
	C798.5,485.1,798.7,484.6,798.7,484L798.7,484z M752.7,472.4c-0.1-2.2,0.1-4.4,0.6-6.5c4.7-1.8,8.9-4.9,12-9
	c2.4-3.3,6.1-5.4,10.2-5.9c2.4-0.3,4.8,0,7,0.8c-0.3,0.3-0.6,0.5-0.9,0.8c-2,2.2-3.2,4.9-3.4,7.9c-1.4-1.5-3.4-2.1-5.4-1.7
	c-4.6,0.9-6.1,4.7-7.8,9.2c-1.2,3.8-3.1,7.3-5.4,10.5c-0.9,1.2-1.7,2.4-2.3,3.8C754.4,480.1,752.9,476.7,752.7,472.4L752.7,472.4z
	 M755.4,496.9c-1.3-1.2-2.7-2.2-4.2-3.1c0.2-2,1-7,3.8-9.6c0.4,0.4,0.9,0.8,1.4,1.1c-0.5,3.3,0.1,6.6,1.8,9.4c0.5,0.8,1,1.6,1.6,2.4
	c-0.1,1,0,2,0.2,3C758.6,499.6,757,498.3,755.4,496.9L755.4,496.9z M770.8,515c-0.6-0.9-2.6-3.7-4.4-7.1c-1.5-2.5-2.6-5.1-3.4-7.8
	c2.3,1.9,5.1,3.1,8.1,3.2c3.3,6.3,10.8,12.3,19.7,12.3c1.4,0,2.8-0.2,4.2-0.6c-1.1,1.2-2.6,2.1-4.1,2.7
	C783.3,520.6,772.8,516,770.8,515L770.8,515z M800.8,519.2c-2.1,0.2-3.9,0.4-5.8-0.5c2.2-1.6,3.9-3.7,4.9-6.2l0.1-0.1
	c1.7-1.2,3.6-2.2,5.7-2.9c1.4-0.4,2.8-1,4.2-1.6l0.1,0.1c1,0.6,2.1,1.1,3.3,1.2c-1.2,3.8-3.3,7.4-6.1,10.3
	C805.2,519,803,518.9,800.8,519.2L800.8,519.2z M829.5,469.8c0.5,1.2,1,2.4,1.7,3.5c2.6,4.1,3.4,8.1,2.3,11.4
	c-0.8,2.1-1.9,4.2-3.3,6c-1.6,2.2-3,4.6-4.3,7c-2.6,4.9-5.7,7.9-8.9,8.7c-1.3,0.4-2.6,0.4-3.9,0c1.3-0.8,2.5-1.6,3.7-2.6
	c2.7-2.2,4.7-5.2,5.7-8.5c0.1-0.5,0.2-1,0.3-1.5c0.2-1.6,0.1-3.1-0.3-4.7h0.1c2.4-1.9,4.1-4.5,5-7.4c0.2-0.6,0.3-1.2,0.4-1.8
	c0.4-2.9-0.3-5.8-1.9-8.2c-1.8-2.9-3.2-6.1-4.1-9.5l-0.2-0.6C826.4,462.6,828,466.3,829.5,469.8L829.5,469.8z M813.9,448.4
	c1.4,1.5,2.7,3.1,3.8,4.9c-1.6-1.9-3.5-3.5-5.7-4.6c-1.9-1-4-1.5-6.2-1.3c-0.1-0.1-0.3-0.2-0.5-0.3c-1.7-0.8-3.3-1.7-4.9-2.7
	c2.5-1.8,5.5-2.7,8.6-2.8C809.7,443.8,811.8,446.2,813.9,448.4L813.9,448.4z"/>
</svg>
