<?xml version="1.0" encoding="utf-8"?>
<!-- Generator: Adobe Illustrator 21.0.0, SVG Export Plug-In . SVG Version: 6.00 Build 0)  -->
<svg version="1.1" id="Layer_1" xmlns="http://www.w3.org/2000/svg" xmlns:xlink="http://www.w3.org/1999/xlink" x="0px" y="0px"
	 viewBox="0 0 1280 960" style="enable-background:new 0 0 1280 960;" xml:space="preserve">
<style type="text/css">
	.st0{fill:#E5B5B5;}
	.st1{fill:#CEB6B6;}
	.st2{fill:#EAD8D8;}
	.st3{fill:#F9E0D2;}
	.st4{fill:#FFFFFF;stroke:#FFFFFF;stroke-width:0.5574;stroke-miterlimit:10;}
</style>
<title>rosie</title>
<rect x="636.1" y="478.9" class="st0" width="161.7" height="161.7"/>
<rect x="637.4" y="289.5" class="st1" width="161.7" height="161.7"/>
<rect x="445.5" y="479.4" class="st2" width="161.7" height="161.7"/>
<rect x="444.6" y="289.8" class="st3" width="161.7" height="161.7"/>
<path class="st4" d="M570.5,583.2l-1.8-1.1c-3.2-2-3.3-2-3.6-2c-5,0.5-8,5.2-8.7,6.4c-2.1,0.6-4,1.8-5.2,3.6
	c-1.6,2.1-3.8,3.7-6.3,4.6c-0.3,0.1-0.5,0.3-0.6,0.6c-0.4,1.4-0.6,3-0.5,4.5c0.1,2,0.7,3.8,1.8,5.4c-1.1,1.2-1.9,2.7-2.2,4.3
	c-0.3,0.9-0.4,1.9-0.4,2.9c0.1,0.3,0.2,0.5,0.5,0.6c0.9,0.4,1.7,1,2.4,1.7c1.2,1.1,2.6,2.2,4.1,2.2c1.2,3.4,4,7.2,4.4,7.8
	c0.1,0.1,0.2,0.2,0.3,0.2c1.3,0.7,2.8,1.2,4.2,1.6c3.3,0.9,6.1,0.9,8.4,0.1l0.2-0.1c1.7,1.3,3.5,1.1,5,0.9c1.2-0.1,2.2-0.2,3.2,0.3
	c0.2,0.1,0.5,0.1,0.7,0c0.5-0.2,3.6-3.5,4.6-7.4c0.3-0.1,0.6-0.1,0.8-0.2c2.3-0.6,4.3-2.5,6-5.6c0.7-1.3,1.4-2.5,2.3-3.7
	c0.8-1.1,1.6-2.4,2.1-3.7c0.1-0.4,0.2-0.8,0.3-1.2c0.3-2-0.3-4.3-1.7-6.5c-0.3-0.6-0.6-1.1-0.8-1.7c-0.9-2.2-2.2-5.3-6.4-5.7
	c-0.2-0.4-0.3-0.8-0.5-1.2c0.1-0.1,0.1-0.1,0.2-0.2c0.2-0.3,0.3-0.6,0.4-0.9c0.2-1.4-1.2-3-2.6-4.5c-1.1-1.2-2.2-2.5-2.5-3.4
	c-0.1-0.4-0.5-0.8-1-0.8C575.8,580.6,572.3,581.4,570.5,583.2L570.5,583.2z M565,581.7c0.4,0.2,1.7,1,2.8,1.7c1.7,1.1,3.2,2,4.3,2.6
	l-0.8,0.2c-1.4,0.3-2.8,0.5-4.2,0.5c-1.2-0.1-2.3,0.2-3.5,0.6c-1.6-0.8-3.3-1.2-5.1-1.1C559.6,584.6,561.9,582.1,565,581.7
	L565,581.7z M582.4,594.4c0.6,2,1.4,3.9,2.5,5.7c1.8,2.7,0.6,5.6-1.2,7.3c-0.3-0.6-0.7-1.2-1.2-1.7c0-2-0.4-4-1.2-5.8
	c-1.4-3.5-4.1-6.3-7.5-7.9c-4.2-2-9.2-1.2-12.6,0.7c0.2-1.1,0.7-2.2,1.4-3c1-1.1,2.5-1.6,4.5-1.6c1.5-0.1,3-0.2,4.5-0.6
	c2.3-0.4,4.4-0.8,6,0.1C580.9,589.6,581.6,591.7,582.4,594.4L582.4,594.4z M574.5,618.9c-1.3,0.4-2.5,1-3.6,1.8
	c-1.3,0.8-2.3,1.5-4.3,1.5c-4.6,0-8.5-3.4-9.9-6.6c-0.3-0.7-0.5-1.5-0.4-2.3c1.7,2,4.6,4.3,7.7,4.7c1.8,0.2,3.6-0.3,4.9-1.6
	c0.3-0.3,0.7-0.7,1-1.1c1.3,0.6,3.4,0.7,5.4,0.2c2.8-0.8,5.2-2.8,6.4-5.5c0.3-0.6,0.5-1.3,0.6-2c0.7,1.2,0.9,2.6,0.5,3.9
	C581.9,614.9,578.8,617.6,574.5,618.9L574.5,618.9z M549.8,611.3c-1.4-2.3-1.1-5.2,0.7-7.2c1.4-1.9,2.5-4,3.3-6.2
	c0.9-2.5,1.5-3.8,3.2-4.1c0.8-0.1,1.5,0.2,1.9,0.9c-1.4,1.4-2,3.2-1.6,4.8c-0.8,0.7-1.6,1.6-2.1,2.6c-1.7,3.1-1.6,6.7,0.1,9.8
	c-0.6,1.1-0.6,2.4-0.2,3.6C553,614.9,550.8,613.1,549.8,611.3L549.8,611.3z M580.1,609.4c-1,2.2-3,4-5.4,4.6c-1.3,0.4-2.8,0.4-4.1,0
	c0.2-0.3,0.3-0.7,0.4-1c2.3-0.7,4.2-2.5,4.9-4.8c0.2-0.4,0.3-0.9,0.3-1.4c0.3-2.5-0.6-5.1-2.6-7.2c-2.3-2.5-5.7-5-10.9-2.1
	c-1.4,0-3,0.3-4.2,1c0-1.4,1.2-2.7,2-3.3c2.8-2.3,8.3-3.6,12.5-1.7c3,1.5,5.4,4,6.7,7.1C581.1,603.6,581.2,606.8,580.1,609.4
	L580.1,609.4z M556.8,611.3c-1.7-2.6-1.8-5.9-0.3-8.6c0.8-1.6,2.3-2.8,4-3.3c-1,1.1-1.7,2.5-2.1,4c-0.4,1.8-0.2,3.7,0.8,5.4
	c1.7,2.6,4.2,3.8,6.6,3.3c1.7-0.3,3.2-1.5,4-3.1c0.6,2.3-0.2,4.7-2,6.3c-0.9,0.9-2.3,1.3-3.6,1.2C562,616.2,558.8,614.3,556.8,611.3
	L556.8,611.3z M568.7,607.3c-0.9,0.8-2.4,0.8-3.2-0.1c-0.4-0.4-0.6-1-0.6-1.6c0-0.1,0-0.2,0-0.2c0.2-1.2,1.3-2.1,2.6-2
	c1.2,0.2,2.1,1.3,2,2.6C569.3,606.4,569.1,606.9,568.7,607.3L568.7,607.3z M571,606.1c0-0.1,0.1-0.3,0.1-0.4c0.1-2.1-1.6-3.9-3.7-4
	c-2.1-0.1-3.9,1.6-4,3.7c-0.1,2.1,1.6,3.9,3.7,4c0.1,0,0.2,0,0.3,0c-0.6,0.5-1.2,0.8-1.9,0.9c-1.8,0.4-3.6-0.6-5-2.6
	c-0.7-1.2-0.9-2.7-0.6-4.1c0.5-2,1.8-3.8,3.6-4.8c4.1-2.4,6.6-1.1,9.1,1.7c2.7,2.9,2.3,5.7,1.9,7.1c-0.5,1.5-1.6,2.8-3,3.5
	c0-0.2,0.1-0.5,0.1-0.7c0-1.2-0.3-2.3-0.7-3.4C570.9,606.8,571,606.5,571,606.1L571,606.1z M545.4,599.7c-0.1-1.2,0.1-2.5,0.3-3.6
	c2.6-1,5-2.7,6.7-5c1.3-1.8,3.4-3,5.7-3.3c1.3-0.2,2.7,0,3.9,0.4c-0.2,0.2-0.3,0.3-0.5,0.4c-1.1,1.2-1.8,2.7-1.9,4.4
	c-0.8-0.8-1.9-1.2-3-0.9c-2.6,0.5-3.4,2.6-4.3,5.1c-0.7,2.1-1.7,4.1-3,5.9c-0.5,0.7-0.9,1.3-1.3,2.1
	C546.3,604,545.5,602.1,545.4,599.7L545.4,599.7z M546.9,613.3c-0.7-0.7-1.5-1.2-2.3-1.7c0.1-1.1,0.6-3.9,2.1-5.4
	c0.2,0.2,0.5,0.4,0.8,0.6c-0.3,1.8,0.1,3.7,1,5.2c0.3,0.4,0.6,0.9,0.9,1.3c-0.1,0.6,0,1.1,0.1,1.7
	C548.7,614.8,547.8,614.1,546.9,613.3L546.9,613.3z M555.5,623.4c-0.3-0.5-1.4-2.1-2.5-4c-0.8-1.4-1.4-2.8-1.9-4.3
	c1.3,1.1,2.8,1.7,4.5,1.8c1.8,3.5,6,6.9,11,6.9c0.8,0,1.6-0.1,2.3-0.3c-0.6,0.7-1.4,1.2-2.3,1.5C562.4,626.5,556.6,624,555.5,623.4
	L555.5,623.4z M572.2,625.8c-1.2,0.1-2.2,0.2-3.2-0.3c1.2-0.9,2.2-2.1,2.7-3.5l0.1-0.1c0.9-0.7,2-1.2,3.2-1.6
	c0.8-0.2,1.6-0.6,2.3-0.9l0.1,0.1c0.6,0.3,1.2,0.6,1.8,0.7c-0.7,2.1-1.8,4.1-3.4,5.7C574.6,625.6,573.4,625.6,572.2,625.8
	L572.2,625.8z M588.2,598.2c0.3,0.7,0.6,1.3,0.9,2c1.4,2.3,1.9,4.5,1.3,6.4c-0.4,1.2-1.1,2.3-1.8,3.3c-0.9,1.2-1.7,2.6-2.4,3.9
	c-1.4,2.7-3.2,4.4-5,4.8c-0.7,0.2-1.4,0.2-2.2,0c0.7-0.4,1.4-0.9,2.1-1.4c1.5-1.2,2.6-2.9,3.2-4.7c0.1-0.3,0.1-0.6,0.2-0.8
	c0.1-0.9,0.1-1.7-0.2-2.6h0.1c1.3-1.1,2.3-2.5,2.8-4.1c0.1-0.3,0.2-0.7,0.2-1c0.2-1.6-0.2-3.2-1.1-4.6c-1-1.6-1.8-3.4-2.3-5.3
	l-0.1-0.3C586.5,594.2,587.4,596.3,588.2,598.2L588.2,598.2z M579.5,586.3c0.8,0.8,1.5,1.7,2.1,2.7c-0.9-1.1-2-2-3.2-2.6
	c-1.1-0.6-2.2-0.8-3.5-0.7c-0.1-0.1-0.2-0.1-0.3-0.2c-0.9-0.4-1.8-0.9-2.7-1.5c1.4-1,3.1-1.5,4.8-1.6
	C577.2,583.7,578.3,585.1,579.5,586.3L579.5,586.3z"/>
</svg>
